<svg xmlns="http://www.w3.org/2000/svg" version="1.1" xmlns:xlink="http://www.w3.org/1999/xlink" xmlns:svgjs="http://svgjs.dev/svgjs" width="2000" height="186" viewBox="0 0 2000 186"><g transform="matrix(1,0,0,1,-1.2121212121212466,0.3240277146772712)"><svg viewBox="0 0 396 37" data-background-color="#692729" preserveAspectRatio="xMidYMid meet" height="186" width="2000" xmlns="http://www.w3.org/2000/svg" xmlns:xlink="http://www.w3.org/1999/xlink"><g id="tight-bounds" transform="matrix(1,0,0,1,0.2400000000000091,-0.06445712603795073)"><svg viewBox="0 0 395.52 37.12891425207588" height="37.12891425207588" width="395.52"><g><svg viewBox="0 0 449.02610498782815 42.151728734417205" height="37.12891425207588" width="395.52"><g><rect width="2.750569028837769" height="30.653029940730303" x="402.7204424838685" y="5.749349396843451" fill="#ffffff" opacity="1" stroke-width="0" stroke="transparent" fill-opacity="1" class="rect-qz-0" data-fill-palette-color="primary" rx="1%" id="qz-0" data-palette-color="#ffffff"></rect></g><g transform="matrix(1,0,0,1,0,5.825600715103972)"><svg viewBox="0 0 395.52 30.50052730420926" height="30.50052730420926" width="395.52"><g id="textblocktransform"><svg viewBox="0 0 395.52 30.50052730420926" height="30.50052730420926" width="395.52" id="textblock"><g><svg viewBox="0 0 395.52 30.50052730420926" height="30.50052730420926" width="395.52"><g transform="matrix(1,0,0,1,0,0)"><svg width="395.52" viewBox="2.85 -32.05 434.799223851103 33.449999999999996" height="30.50052730420926" data-palette-color="#ffffff"><g transform="matrix(1,0,0,1,0,0)"><g><svg width="3.257946156939398" viewBox="1.78 -36.36 29.86 36.36" height="3.966869042456532" data-palette-color="#ffffff" id="scriptelement" x="432.14374077263335" y="-5.859944521228266"><path d="M12.91-30.02L1.78-30.02 1.78-36.36 31.64-36.36 31.64-30.02 20.51-30.02 20.51 0 12.91 0 12.91-30.02Z" opacity="1" transform="matrix(1,0,0,1,0,0)" fill="#ffffff" class="undefined-123" data-fill-palette-color="primary" id="yy-123"></path></svg></g></g><path d="M429.896-3.877C429.896-6.017 431.632-7.753 433.773-7.753 435.914-7.753 437.649-6.017 437.649-3.877 437.649-1.736 435.914 0 433.773 0 431.632 0 429.896-1.736 429.896-3.877ZM433.773-0.553C435.608-0.553 437.096-2.041 437.096-3.877 437.096-5.712 435.608-7.2 433.773-7.2 431.937-7.2 430.449-5.712 430.449-3.877 430.449-2.041 431.937-0.553 433.773-0.553Z" fill="#ffffff" id="scriptcircle" data-fill-palette-color="primary"></path><path d="M25.6 0.8Q24.35 0.8 22.93-0.48 21.5-1.75 20.3-3.95L20.3-3.95 14.95-13.65 10.8-13.65 10.65-6.2Q10.65-4.3 10.9-3.48 11.15-2.65 11.85-2.38 12.55-2.1 14.25-2.1L14.25-2.1 14.35-1.9 13.9 0.2Q13.3 0.15 11.5 0.1 9.7 0.05 7.75 0.05L7.75 0.05Q6 0.05 4.65 0.1 3.3 0.15 2.85 0.2L2.85 0.2 3.3-2.05Q4.9-2.25 5.7-2.6 6.5-2.95 6.8-3.73 7.1-4.5 7.1-6L7.1-6 7.15-27Q7.15-28.6 6.78-29.15 6.4-29.7 5.3-29.7L5.3-29.7Q4.8-29.7 4.3-29.65 3.8-29.6 3.6-29.6L3.6-29.6 3.5-29.8 3.85-32Q4.45-31.95 6.1-31.9 7.75-31.85 9.4-31.85L9.4-31.85Q11.1-31.85 12.98-31.93 14.85-32 15.55-32.05L15.55-32.05Q20.2-32.05 22.9-29.95 25.6-27.85 25.6-24.2L25.6-24.2Q25.6-21.2 23.68-18.7 21.75-16.2 18.25-14.6L18.25-14.6 23.75-5.9Q25.2-3.5 26.58-2.58 27.95-1.65 29.95-1.65L29.95-1.65 30.15-1.45 29.85 0.25 25.6 0.8ZM16.05-15.95Q16.05-15.8 17.55-16.6 19.05-17.4 20.25-19.05 21.45-20.7 21.45-23.3L21.45-23.3Q21.45-29.9 12.3-29.9L12.3-29.9Q11.8-29.9 11.63-29.68 11.45-29.45 11.4-28.75L11.4-28.75Q10.95-21.1 10.9-16.45L10.9-16.45 16.05-15.95ZM33.25 0.4L33.5-1.7Q35.35-1.9 36-2.6 36.65-3.3 36.65-5L36.65-5 36.7-20.85Q36.7-22.1 36.4-22.53 36.1-22.95 35.2-22.95L35.2-22.95 33.85-22.9 33.75-23.1 34.05-25Q34.65-25 36.4-24.95 38.15-24.9 40.2-24.9L40.2-24.9Q48.55-24.9 52.55-25.35L52.55-25.35 52.7-25.1Q52.6-24.55 52.25-22.6 51.9-20.65 51.75-18.4L51.75-18.4 49.35-18.2Q49.35-18.4 49.4-18.88 49.45-19.35 49.45-19.85L49.45-19.85Q49.45-21.15 49.07-21.68 48.7-22.2 47.52-22.38 46.35-22.55 43.45-22.55L43.45-22.55Q42.1-22.55 41.6-22.48 41.1-22.4 40.95-22.13 40.8-21.85 40.75-21.1L40.75-21.1 40.45-14 44.55-13.95Q45.45-13.95 47.2-14.13 48.95-14.3 49.5-14.35L49.5-14.35 49.7-14.1 49.1-11.5Q48.55-11.5 46.92-11.55 45.3-11.6 43.5-11.6L43.5-11.6Q42.1-11.6 40.35-11.35L40.35-11.35Q40.2-7.55 40.2-4.5L40.2-4.5Q40.2-3.35 40.37-2.9 40.55-2.45 41.17-2.3 41.8-2.15 43.25-2.15L43.25-2.15Q46.5-2.15 47.9-2.45 49.3-2.75 49.87-3.68 50.45-4.6 50.8-6.85L50.8-6.85 53-7.05 53.2-6.8Q53.05-6.25 52.67-4.23 52.3-2.2 52.1 0L52.1 0 51.8 0.25Q50.45 0.2 46.2 0.1 41.95 0 39.3 0L39.3 0Q37.25 0 35.5 0.18 33.75 0.35 33.25 0.4L33.25 0.4ZM65.5 0.45Q63.75 0.45 62.27 0.15 60.8-0.15 59.92-0.48 59.05-0.8 58.85-0.9L58.85-0.9 58.6-1.35Q58.65-1.6 58.77-2.48 58.9-3.35 59.02-4.93 59.15-6.5 59.15-8.1L59.15-8.1 61.4-8.3Q61.4-5.6 61.82-4.28 62.25-2.95 63.3-2.45 64.35-1.95 66.5-1.95L66.5-1.95Q68.9-1.95 70.37-3 71.85-4.05 71.85-5.8L71.85-5.8Q71.85-6.95 71.02-7.83 70.2-8.7 69.12-9.3 68.05-9.9 65.7-11.05L65.7-11.05Q62.5-12.6 60.77-14.1 59.05-15.6 59.05-17.95L59.05-17.95Q59.05-20.05 60.32-21.75 61.6-23.45 63.85-24.4 66.1-25.35 68.85-25.35L68.85-25.35Q70.5-25.35 71.95-25.15 73.4-24.95 74.25-24.73 75.1-24.5 75.3-24.4L75.3-24.4 75.5-24.05Q75.4-23.5 75.05-21.58 74.7-19.65 74.55-17.45L74.55-17.45 72.6-17.25 72.3-17.45Q72.3-17.6 72.35-18.07 72.4-18.55 72.4-19.25L72.4-19.25Q72.4-21.2 71.37-21.98 70.35-22.75 67.75-22.75L67.75-22.75Q65.65-22.75 64.27-21.78 62.9-20.8 62.9-19.3L62.9-19.3Q62.9-17.8 64.27-16.75 65.65-15.7 68.45-14.35L68.45-14.35Q70.9-13.2 72.37-12.35 73.85-11.5 74.9-10.2 75.95-8.9 75.95-7.2L75.95-7.2Q75.95-4.95 74.62-3.23 73.3-1.5 70.92-0.53 68.55 0.45 65.5 0.45L65.5 0.45ZM93.19 0.45Q87.54 0.45 84.24-2.8 80.94-6.05 80.94-11.65L80.94-11.65Q80.94-15.6 82.77-18.73 84.59-21.85 87.87-23.6 91.14-25.35 95.29-25.35L95.29-25.35Q96.79-25.35 98.42-25.15 100.04-24.95 101.17-24.7 102.29-24.45 102.59-24.4L102.59-24.4 102.79-24.1Q102.74-23.85 102.54-22.93 102.34-22 102.09-20.5 101.84-19 101.74-17.3L101.74-17.3 99.24-17.15Q99.24-17.3 99.29-17.85 99.34-18.4 99.34-19.1L99.34-19.1Q99.34-22.6 93.74-22.6L93.74-22.6Q89.84-22.6 87.59-20.03 85.34-17.45 85.34-12.95L85.34-12.95Q85.34-7.95 87.72-5 90.09-2.05 94.09-2.05L94.09-2.05Q96.74-2.05 98.32-3.48 99.89-4.9 100.59-7.95L100.59-7.95 103.09-8.15Q102.94-7.55 102.57-5.45 102.19-3.35 102.04-1.5L102.04-1.5 101.74-1.1Q101.44-1 100.32-0.63 99.19-0.25 97.29 0.1 95.39 0.45 93.19 0.45L93.19 0.45ZM119.39 0.45Q114.94 0.45 112.62-1.75 110.29-3.95 110.29-8.1L110.29-8.1 110.29-20.85Q110.29-22.1 109.99-22.53 109.69-22.95 108.79-22.95L108.79-22.95 107.44-22.9 107.34-23.05 107.64-25Q108.19-25 109.64-24.95 111.09-24.9 112.59-24.9L112.59-24.9Q113.69-24.9 115.14-25.03 116.59-25.15 117.04-25.2L117.04-25.2 116.84-23.2Q115.39-23 114.89-22.55 114.39-22.1 114.29-21L114.29-21 113.99-9.55Q113.99-6 115.64-4.08 117.29-2.15 120.39-2.15L120.39-2.15Q123.54-2.15 125.17-3.73 126.79-5.3 126.79-8.3L126.79-8.3Q126.79-11.4 126.72-15.33 126.64-19.25 126.59-20.85L126.59-20.85Q126.49-22.2 126.24-22.58 125.99-22.95 125.14-22.95L125.14-22.95 123.44-22.9 123.39-23.05 123.69-25Q124.19-25 125.57-24.95 126.94-24.9 128.34-24.9L128.34-24.9Q129.49-24.9 130.82-25.03 132.14-25.15 132.54-25.2L132.54-25.2 132.39-23.2Q130.64-22.95 130.14-22.55 129.64-22.15 129.64-21.05L129.64-21.05 129.64-8.25Q129.64-4.1 126.97-1.83 124.29 0.45 119.39 0.45L119.39 0.45ZM136.99 0.4L137.24-1.7Q139.09-1.9 139.74-2.6 140.39-3.3 140.39-5L140.39-5 140.44-20.85Q140.44-22.1 140.14-22.53 139.84-22.95 138.94-22.95L138.94-22.95 137.59-22.9 137.49-23.1 137.79-25Q138.39-25 140.14-24.95 141.89-24.9 143.94-24.9L143.94-24.9Q152.29-24.9 156.29-25.35L156.29-25.35 156.44-25.1Q156.34-24.55 155.99-22.6 155.64-20.65 155.49-18.4L155.49-18.4 153.09-18.2Q153.09-18.4 153.14-18.88 153.19-19.35 153.19-19.85L153.19-19.85Q153.19-21.15 152.81-21.68 152.44-22.2 151.26-22.38 150.09-22.55 147.19-22.55L147.19-22.55Q145.84-22.55 145.34-22.48 144.84-22.4 144.69-22.13 144.54-21.85 144.49-21.1L144.49-21.1 144.19-14 148.29-13.95Q149.19-13.95 150.94-14.13 152.69-14.3 153.24-14.35L153.24-14.35 153.44-14.1 152.84-11.5Q152.29-11.5 150.66-11.55 149.04-11.6 147.24-11.6L147.24-11.6Q145.84-11.6 144.09-11.35L144.09-11.35Q143.94-7.55 143.94-4.5L143.94-4.5Q143.94-3.35 144.11-2.9 144.29-2.45 144.91-2.3 145.54-2.15 146.99-2.15L146.99-2.15Q150.24-2.15 151.64-2.45 153.04-2.75 153.61-3.68 154.19-4.6 154.54-6.85L154.54-6.85 156.74-7.05 156.94-6.8Q156.79-6.25 156.41-4.23 156.04-2.2 155.84 0L155.84 0 155.54 0.25Q154.19 0.2 149.94 0.1 145.69 0 143.04 0L143.04 0Q140.99 0 139.24 0.18 137.49 0.35 136.99 0.4L136.99 0.4ZM195.18 0.8Q193.93 0.8 192.51-0.48 191.08-1.75 189.88-3.95L189.88-3.95 184.53-13.65 180.38-13.65 180.23-6.2Q180.23-4.3 180.48-3.48 180.73-2.65 181.43-2.38 182.13-2.1 183.83-2.1L183.83-2.1 183.93-1.9 183.48 0.2Q182.88 0.15 181.08 0.1 179.28 0.05 177.33 0.05L177.33 0.05Q175.58 0.05 174.23 0.1 172.88 0.15 172.43 0.2L172.43 0.2 172.88-2.05Q174.48-2.25 175.28-2.6 176.08-2.95 176.38-3.73 176.68-4.5 176.68-6L176.68-6 176.73-27Q176.73-28.6 176.36-29.15 175.98-29.7 174.88-29.7L174.88-29.7Q174.38-29.7 173.88-29.65 173.38-29.6 173.18-29.6L173.18-29.6 173.08-29.8 173.43-32Q174.03-31.95 175.68-31.9 177.33-31.85 178.98-31.85L178.98-31.85Q180.68-31.85 182.56-31.93 184.43-32 185.13-32.05L185.13-32.05Q189.78-32.05 192.48-29.95 195.18-27.85 195.18-24.2L195.18-24.2Q195.18-21.2 193.26-18.7 191.33-16.2 187.83-14.6L187.83-14.6 193.33-5.9Q194.78-3.5 196.16-2.58 197.53-1.65 199.53-1.65L199.53-1.65 199.73-1.45 199.43 0.25 195.18 0.8ZM185.63-15.95Q185.63-15.8 187.13-16.6 188.63-17.4 189.83-19.05 191.03-20.7 191.03-23.3L191.03-23.3Q191.03-29.9 181.88-29.9L181.88-29.9Q181.38-29.9 181.21-29.68 181.03-29.45 180.98-28.75L180.98-28.75Q180.53-21.1 180.48-16.45L180.48-16.45 185.63-15.95ZM202.83 0.4L203.08-1.7Q204.93-1.9 205.58-2.6 206.23-3.3 206.23-5L206.23-5 206.28-20.85Q206.28-22.1 205.98-22.53 205.68-22.95 204.78-22.95L204.78-22.95 203.43-22.9 203.33-23.1 203.63-25Q204.23-25 205.98-24.95 207.73-24.9 209.78-24.9L209.78-24.9Q218.13-24.9 222.13-25.35L222.13-25.35 222.28-25.1Q222.18-24.55 221.83-22.6 221.48-20.65 221.33-18.4L221.33-18.4 218.93-18.2Q218.93-18.4 218.98-18.88 219.03-19.35 219.03-19.85L219.03-19.85Q219.03-21.15 218.66-21.68 218.28-22.2 217.11-22.38 215.93-22.55 213.03-22.55L213.03-22.55Q211.68-22.55 211.18-22.48 210.68-22.4 210.53-22.13 210.38-21.85 210.33-21.1L210.33-21.1 210.03-14 214.13-13.95Q215.03-13.95 216.78-14.13 218.53-14.3 219.08-14.35L219.08-14.35 219.28-14.1 218.68-11.5Q218.13-11.5 216.51-11.55 214.88-11.6 213.08-11.6L213.08-11.6Q211.68-11.6 209.93-11.35L209.93-11.35Q209.78-7.55 209.78-4.5L209.78-4.5Q209.78-3.35 209.96-2.9 210.13-2.45 210.76-2.3 211.38-2.15 212.83-2.15L212.83-2.15Q216.08-2.15 217.48-2.45 218.88-2.75 219.46-3.68 220.03-4.6 220.38-6.85L220.38-6.85 222.58-7.05 222.78-6.8Q222.63-6.25 222.26-4.23 221.88-2.2 221.68 0L221.68 0 221.38 0.25Q220.03 0.2 215.78 0.1 211.53 0 208.88 0L208.88 0Q206.83 0 205.08 0.18 203.33 0.35 202.83 0.4L202.83 0.4ZM248.63-6.8L248.58-21.25Q248.58-22.9 247.23-22.9L247.23-22.9 245.73-22.9 245.63-23.1 245.98-25.05Q246.43-25 247.68-24.95 248.93-24.9 250.23-24.9L250.23-24.9Q251.33-24.9 252.7-25.03 254.08-25.15 254.48-25.2L254.48-25.2 254.28-23.15Q252.83-22.95 252.2-22.38 251.58-21.8 251.53-20.65L251.53-20.65 250.93 0.85 248.98 1.4Q244.23-5.55 239.38-12.2 234.53-18.85 234.53-18.75L234.53-18.75 234.28-18.75 234.13-3.6Q234.13-2.65 234.43-2.3 234.73-1.95 235.43-1.95L235.43-1.95 237.43-2 237.58-1.85 237.18 0.15Q236.73 0.1 235.4 0.05 234.08 0 232.63 0L232.63 0Q231.48 0 230.18 0.13 228.88 0.25 228.48 0.3L228.48 0.3 228.73-1.75Q229.98-1.9 230.58-2.48 231.18-3.05 231.23-4.2L231.23-4.2 231.78-20.7Q231.78-21.95 231.05-22.43 230.33-22.9 228.28-23.15L228.28-23.15 228.08-23.4 228.43-25.1Q228.83-25.05 229.95-24.98 231.08-24.9 232.23-24.9L232.23-24.9Q233.33-24.9 234.18-24.95 235.03-25 235.28-25.05L235.28-25.05Q239.33-19.1 243.85-12.9 248.38-6.7 248.38-6.8L248.38-6.8 248.63-6.8ZM260.73 0.2L261.08-1.8Q263.08-1.95 263.9-2.3 264.73-2.65 264.95-3.48 265.18-4.3 265.18-6.35L265.18-6.35 265.18-22.9Q262.03-22.8 260.93-22.55 259.83-22.3 259.3-21.38 258.78-20.45 258.43-17.9L258.43-17.9 256.08-17.75Q256.18-18.4 256.4-20.63 256.63-22.85 256.68-25L256.68-25 257.08-25.35 260.63-24.95 273.38-24.95 277.03-25.35 277.43-25Q277.48-22.8 277.68-20.65 277.88-18.5 277.98-17.9L277.98-17.9 275.68-17.75Q275.28-20.35 274.75-21.33 274.23-22.3 273.2-22.55 272.18-22.8 269.28-22.9L269.28-22.9Q269.03-20.5 268.83-14.93 268.63-9.35 268.63-4.65L268.63-4.65Q268.63-3.2 269.18-2.6 269.73-2 270.98-2L270.98-2Q271.88-2 272.45-2.05 273.03-2.1 273.18-2.1L273.18-2.1 273.33-1.95 272.98 0.15Q272.28 0.15 270.38 0.08 268.48 0 266.68 0L266.68 0Q264.88 0 263.13 0.08 261.38 0.15 260.73 0.2L260.73 0.2ZM314.42 0.8Q313.17 0.8 311.75-0.48 310.32-1.75 309.12-3.95L309.12-3.95 303.77-13.65 299.62-13.65 299.47-6.2Q299.47-4.3 299.72-3.48 299.97-2.65 300.67-2.38 301.37-2.1 303.07-2.1L303.07-2.1 303.17-1.9 302.72 0.2Q302.12 0.15 300.32 0.1 298.52 0.05 296.57 0.05L296.57 0.05Q294.82 0.05 293.47 0.1 292.12 0.15 291.67 0.2L291.67 0.2 292.12-2.05Q293.72-2.25 294.52-2.6 295.32-2.95 295.62-3.73 295.92-4.5 295.92-6L295.92-6 295.97-27Q295.97-28.6 295.6-29.15 295.22-29.7 294.12-29.7L294.12-29.7Q293.62-29.7 293.12-29.65 292.62-29.6 292.42-29.6L292.42-29.6 292.32-29.8 292.67-32Q293.27-31.95 294.92-31.9 296.57-31.85 298.22-31.85L298.22-31.85Q299.92-31.85 301.8-31.93 303.67-32 304.37-32.05L304.37-32.05Q309.02-32.05 311.72-29.95 314.42-27.85 314.42-24.2L314.42-24.2Q314.42-21.2 312.5-18.7 310.57-16.2 307.07-14.6L307.07-14.6 312.57-5.9Q314.02-3.5 315.4-2.58 316.77-1.65 318.77-1.65L318.77-1.65 318.97-1.45 318.67 0.25 314.42 0.8ZM304.87-15.95Q304.87-15.8 306.37-16.6 307.87-17.4 309.07-19.05 310.27-20.7 310.27-23.3L310.27-23.3Q310.27-29.9 301.12-29.9L301.12-29.9Q300.62-29.9 300.45-29.68 300.27-29.45 300.22-28.75L300.22-28.75Q299.77-21.1 299.72-16.45L299.72-16.45 304.87-15.95ZM322.07 0.4L322.32-1.7Q324.17-1.9 324.82-2.6 325.47-3.3 325.47-5L325.47-5 325.52-20.85Q325.52-22.1 325.22-22.53 324.92-22.95 324.02-22.95L324.02-22.95 322.67-22.9 322.57-23.1 322.87-25Q323.47-25 325.22-24.95 326.97-24.9 329.02-24.9L329.02-24.9Q337.37-24.9 341.37-25.35L341.37-25.35 341.52-25.1Q341.42-24.55 341.07-22.6 340.72-20.65 340.57-18.4L340.57-18.4 338.17-18.2Q338.17-18.4 338.22-18.88 338.27-19.35 338.27-19.85L338.27-19.85Q338.27-21.15 337.89-21.68 337.52-22.2 336.34-22.38 335.17-22.55 332.27-22.55L332.27-22.55Q330.92-22.55 330.42-22.48 329.92-22.4 329.77-22.13 329.62-21.85 329.57-21.1L329.57-21.1 329.27-14 333.37-13.95Q334.27-13.95 336.02-14.13 337.77-14.3 338.32-14.35L338.32-14.35 338.52-14.1 337.92-11.5Q337.37-11.5 335.74-11.55 334.12-11.6 332.32-11.6L332.32-11.6Q330.92-11.6 329.17-11.35L329.17-11.35Q329.02-7.55 329.02-4.5L329.02-4.5Q329.02-3.35 329.19-2.9 329.37-2.45 329.99-2.3 330.62-2.15 332.07-2.15L332.07-2.15Q335.32-2.15 336.72-2.45 338.12-2.75 338.69-3.68 339.27-4.6 339.62-6.85L339.62-6.85 341.82-7.05 342.02-6.8Q341.87-6.25 341.49-4.23 341.12-2.2 340.92 0L340.92 0 340.62 0.25Q339.27 0.2 335.02 0.1 330.77 0 328.12 0L328.12 0Q326.07 0 324.32 0.18 322.57 0.35 322.07 0.4L322.07 0.4ZM347.82 0.4L348.12-1.7Q349.72-1.95 350.29-2.63 350.87-3.3 350.87-5L350.87-5 350.92-20.85Q350.92-22.1 350.62-22.53 350.32-22.95 349.42-22.95L349.42-22.95 348.07-22.9 347.92-23.1 348.22-25Q348.47-25 349.72-24.95 350.97-24.9 353.07-24.9L353.07-24.9Q354.17-24.9 355.79-25.05 357.42-25.2 357.92-25.25L357.92-25.25 357.72-23.15Q356.37-23 355.82-22.68 355.27-22.35 355.17-21.85 355.07-21.35 354.92-19.8L354.92-19.8Q354.42-13.1 354.42-4.95L354.42-4.95Q354.42-3.7 354.64-3.13 354.87-2.55 355.54-2.35 356.22-2.15 357.67-2.15L357.67-2.15Q360.07-2.15 361.19-2.55 362.32-2.95 362.89-4.13 363.47-5.3 363.92-7.85L363.92-7.85 366.12-8.1 366.27-7.8Q366.17-7.15 365.79-4.83 365.42-2.5 365.12 0.05L365.12 0.05 364.87 0.35Q363.72 0.3 359.99 0.15 356.27 0 353.72 0L353.72 0Q351.72 0 349.99 0.18 348.27 0.35 347.82 0.4L347.82 0.4ZM368.51 0.45L368.76-1.6Q370.66-1.95 371.31-2.63 371.96-3.3 371.96-4.95L371.96-4.95 372.01-20.85Q372.01-22.1 371.71-22.53 371.41-22.95 370.51-22.95L370.51-22.95 368.86-22.9 368.76-23.1 369.01-25Q369.31-25 370.64-24.95 371.96-24.9 374.11-24.9L374.11-24.9Q375.26-24.9 376.94-25.05 378.61-25.2 379.11-25.25L379.11-25.25 378.91-23.2Q377.26-23 376.71-22.58 376.16-22.15 376.06-21L376.06-21Q375.86-17 375.69-12.15 375.51-7.3 375.51-4.65L375.51-4.65Q375.51-3.05 375.86-2.5 376.21-1.95 377.26-1.95L377.26-1.95Q377.96-1.95 378.54-2 379.11-2.05 379.31-2.1L379.31-2.1 379.41-1.9 379.06 0.1Q378.46 0.1 376.81 0.05 375.16 0 373.51 0L373.51 0Q372.16 0 370.59 0.18 369.01 0.35 368.51 0.45L368.51 0.45ZM384.51 0.4L384.76-1.7Q386.61-1.9 387.26-2.6 387.91-3.3 387.91-5L387.91-5 387.96-20.85Q387.96-22.1 387.66-22.53 387.36-22.95 386.46-22.95L386.46-22.95 385.11-22.9 385.01-23.1 385.31-25Q385.91-25 387.66-24.95 389.41-24.9 391.46-24.9L391.46-24.9Q399.81-24.9 403.81-25.35L403.81-25.35 403.96-25.1Q403.86-24.55 403.51-22.6 403.16-20.65 403.01-18.4L403.01-18.4 400.61-18.2Q400.61-18.4 400.66-18.88 400.71-19.35 400.71-19.85L400.71-19.85Q400.71-21.15 400.34-21.68 399.96-22.2 398.79-22.38 397.61-22.55 394.71-22.55L394.71-22.55Q393.36-22.55 392.86-22.48 392.36-22.4 392.21-22.13 392.06-21.85 392.01-21.1L392.01-21.1 391.71-14 395.81-13.95Q396.71-13.95 398.46-14.13 400.21-14.3 400.76-14.35L400.76-14.35 400.96-14.1 400.36-11.5Q399.81-11.5 398.19-11.55 396.56-11.6 394.76-11.6L394.76-11.6Q393.36-11.6 391.61-11.35L391.61-11.35Q391.46-7.55 391.46-4.5L391.46-4.5Q391.46-3.35 391.64-2.9 391.81-2.45 392.44-2.3 393.06-2.15 394.51-2.15L394.51-2.15Q397.76-2.15 399.16-2.45 400.56-2.75 401.14-3.68 401.71-4.6 402.06-6.85L402.06-6.85 404.26-7.05 404.46-6.8Q404.31-6.25 403.94-4.23 403.56-2.2 403.36 0L403.36 0 403.06 0.25Q401.71 0.2 397.46 0.1 393.21 0 390.56 0L390.56 0Q388.51 0 386.76 0.18 385.01 0.35 384.51 0.4L384.51 0.4ZM409.91 0.45L410.16-1.6Q412.06-1.95 412.68-2.63 413.31-3.3 413.31-5L413.31-5 413.36-20.85Q413.36-22.1 413.06-22.53 412.76-22.95 411.86-22.95L411.86-22.95 410.51-22.9 410.41-23.1 410.71-25Q411.31-25 413.06-24.95 414.81-24.9 416.86-24.9L416.86-24.9Q424.61-24.9 428.36-25.35L428.36-25.35 428.56-25.1Q428.46-24.55 428.11-22.55 427.76-20.55 427.61-18.3L427.61-18.3 425.21-18.15Q425.21-18.35 425.26-18.85 425.31-19.35 425.31-19.85L425.31-19.85Q425.31-21.15 424.98-21.68 424.66-22.2 423.61-22.38 422.56-22.55 420.11-22.55L420.11-22.55Q418.76-22.55 418.26-22.48 417.76-22.4 417.61-22.13 417.46-21.85 417.41-21.1L417.41-21.1 417.06-13.35 421.21-13.3Q422.01-13.3 423.51-13.48 425.01-13.65 425.51-13.7L425.51-13.7 425.71-13.45 425.16-10.8Q424.66-10.8 423.21-10.85 421.76-10.9 420.16-10.9L420.16-10.9Q418.76-10.9 417.01-10.65L417.01-10.65 416.86-4.75Q416.86-3.2 417.21-2.68 417.56-2.15 418.66-2.15L418.66-2.15Q419.46-2.15 420.31-2.23 421.16-2.3 421.46-2.3L421.46-2.3 421.61-2.05 421.26 0.15Q420.61 0.1 418.78 0.05 416.96 0 415.06 0L415.06 0Q413.61 0 412.01 0.18 410.41 0.35 409.91 0.45L409.91 0.45Z" opacity="1" transform="matrix(1,0,0,1,0,0)" fill="#ffffff" class="wordmark-text-0" data-fill-palette-color="primary" id="text-0"></path></svg></g></svg></g></svg></g></svg></g><g transform="matrix(1,0,0,1,412.6714539965748,0)"><svg viewBox="0 0 36.3546509912534 42.151728734417205" height="42.151728734417205" width="36.3546509912534"><g><svg xmlns="http://www.w3.org/2000/svg" xmlns:xlink="http://www.w3.org/1999/xlink" version="1.1" x="0" y="0" viewBox="4.535136968934388 0.06199999999999939 43.41486303106561 50.33775540762693" enable-background="new 0 0 50.4 50.4" xml:space="preserve" width="36.3546509912534" height="42.151728734417205" class="icon-icon-0" data-fill-palette-color="accent" id="icon-0"><g fill="#eae4d6" data-fill-palette-color="accent"><path d="M5.297 19.403c0 0 0.982 1 1.039 1.71 0.057 0.709-0.409 1.044-0.817 1.077l-0.003 0c-0.408 0.032-0.921-0.225-0.978-0.934s0.756-1.853 0.756-1.853" fill="#ffffff" data-fill-palette-color="accent"></path><path d="M7.803 21.54c0 0 0.984 1 1.04 1.709 0.057 0.71-0.409 1.044-0.817 1.077H8.023c-0.408 0.033-0.922-0.225-0.979-0.933C6.988 22.684 7.8 21.54 7.8 21.54" fill="#ffffff" data-fill-palette-color="accent"></path></g><g fill="#eae4d6" data-fill-palette-color="accent"><circle cx="9.53" cy="16.392" r="3.3" fill="#ffffff" data-fill-palette-color="accent"></circle><path d="M5.726 28.898l5.164-2.317 1.863-6.737c0.502-1.191 1.391-2.062 2.497-2.359 2.596-0.703 3.757 2.233 3.757 2.233l2.38 7.578-5.501-2.401 0.332-1.026c0.092-0.247-0.036-0.52-0.281-0.609-0.246-0.093-0.52 0.033-0.611 0.281l-0.551 1.485c0 0.005-0.003 0.008-0.004 0.01-0.004 0.008-0.004 0.016-0.006 0.023l-1.063 2.871-0.107 0.272c-0.064 0.153-0.313 0.452-0.558 0.575l-5.005 2.382 3.749 5.405 3.999-4.403-1.183-3.906 0.822-2.159 6.613 2.963 3.24 10 5.78 7.63c0.21 0.252 0.333 0.562 0.362 0.944 0.127 0.638 0 1.21-0.378 1.721-0.378 0.504-0.892 0.821-1.526 0.952-0.944 0.148-1.695-0.174-2.255-0.969l-6.167-8.166c-0.13-0.22-0.307-0.525-0.534-0.937l-1.454-4.502-4.735 4.559 6.371 9.133c0.186 0.271 0.119 0.641-0.15 0.828-0.089 0.064-0.188 0.097-0.291 0.105-0.204 0.017-0.412-0.075-0.537-0.255l-5.378-7.704 0.466 5.986c-0.143 1.118-0.795 1.781-1.961 1.99-0.642 0.09-1.216-0.056-1.724-0.436-0.506-0.383-0.804-0.873-0.888-1.476-0.009-0.115-0.022-0.284-0.041-0.512l-0.583-8.453c0.066-0.7 0.434-1.167 0.733-1.469l0.573-0.564-4.055-5.851c-0.942 0.132-1.667-0.353-1.879-1.277C4.881 29.726 5.249 29.123 5.726 28.898z" fill="#ffffff" data-fill-palette-color="accent"></path><path d="M37.679 24.507l-13.442 5.156-1.644-4.276 5.587-2.148-1.58-4.107-5.586 2.147L16.7 10.061l13.371-5.16-3.26-1.631 1.604-3.208 18.82 9.417-3.296 8.667 2.684-1.032 1.327 3.448-5.773 2.219-2.425 6.375-3.355-1.274L37.679 24.507zM33.521 13.042l-1.58-4.106-4.234 1.628 1.579 4.108L33.521 13.042zM36.248 20.138l-1.58-4.108-4.234 1.628 1.578 4.109L36.248 20.138z" fill="#ffffff" data-fill-palette-color="accent"></path></g></svg></g></svg></g></svg></g><defs></defs></svg><rect width="395.52" height="37.12891425207588" fill="none" stroke="none" visibility="hidden"></rect></g></svg></g></svg>