<?xml version="1.0" encoding="utf-8"?>
<!-- Generator: Adobe Illustrator 19.0.1, SVG Export Plug-In . SVG Version: 6.00 Build 0)  -->
<svg version="1.1" id="Layer_1" xmlns="http://www.w3.org/2000/svg" xmlns:xlink="http://www.w3.org/1999/xlink" x="0px" y="0px"
	 viewBox="-987 989 24 24" style="enable-background:new -987 989 24 24;" xml:space="preserve">
<style type="text/css">
	.st0{fill:#757575;}
</style>
<g>
	<path class="st0" d="M-975,990.5v0.5c2.8,0,5.3,1.1,7.1,2.9c1.8,1.8,2.9,4.3,2.9,7.1c0,2.8-1.1,5.3-2.9,7.1
		c-1.8,1.8-4.3,2.9-7.1,2.9c-2.8,0-5.3-1.1-7.1-2.9c-1.8-1.8-2.9-4.3-2.9-7.1c0-2.8,1.1-5.3,2.9-7.1c1.8-1.8,4.3-2.9,7.1-2.9V990.5
		V990c-6.1,0-11,4.9-11,11c0,6.1,4.9,11,11,11c6.1,0,11-4.9,11-11c0-6.1-4.9-11-11-11V990.5z"/>
	<path class="st0" d="M-976,1004.1c0-0.9,0.1-1.5,0.3-1.8s0.5-0.8,1.1-1.4c0.6-0.7,1-1.3,1.3-1.6s0.3-0.9,0.3-1.4
		c0-0.6-0.2-1.1-0.5-1.5c-0.3-0.3-0.9-0.5-1.5-0.5c-0.5,0-1,0.2-1.4,0.4c-0.4,0.3-0.6,0.7-0.6,1.3h-1.7v-0.1c0-0.9,0.3-1.8,1-2.3
		c0.7-0.6,1.6-0.9,2.7-0.9c1.2,0,2.1,0.3,2.7,0.9c0.7,0.6,1,1.5,1,2.6c0,0.8-0.2,1.5-0.6,2.1c-0.4,0.7-1,1.3-1.7,2
		c-0.3,0.3-0.5,0.6-0.6,0.9s-0.1,0.7-0.1,1.2C-974.2,1004.1-976,1004.1-976,1004.1z M-974.1,1007.8h-1.9v-1.9h1.9V1007.8z"/>
</g>
</svg>
